<svg id="logo" xmlns="http://www.w3.org/2000/svg" viewBox="0 0 1000 1000"><defs><style>.cls-1{fill:#434444;}.cls-2{fill:#e1e1e1;opacity:0.25;}.cls-3{fill:#92c36b;}.cls-4{fill:#659c6a;}.cls-5{fill:#f3f0bb;}.cls-6{fill:#c9d269;}.cls-7{fill:#7db06c;}.cls-8{fill:#f4f1bc;}.cls-9{fill:#f6f3bd;}.cls-10{fill:#aecc6a;}.cls-11{fill:#669e6a;}.cls-12{fill:#a3c86a;}.cls-13{fill:#7fb16d;}.cls-14{fill:#f2efba;}.cls-15{fill:#b8cd69;}.cls-16{fill:#4a4a49;}.cls-17{fill:#689f6a;}.cls-18{fill:#becf68;}.cls-19{fill:#494948;}</style></defs><path class="cls-1" d="M969.11,476.64q-.48,4.32-1,8.62l-1.2,5.34c-.21,2.3-.43,4.59-.64,6.88q-1.56,7.92-3.11,15.84c-.13,1.13-.27,2.27-.41,3.41a40.36,40.36,0,0,0-1.66,4.82C950.6,572.36,934,620.88,906.2,665c-17.78,28.21-41.63,48.86-75.09,55.47-14.46,2.86-29.46,3.24-44.25,4.15-40.11,2.48-80.3,3.85-120.34,7.14-40.33,3.31-80.55,8.05-120.75,12.79-39.9,4.71-79.74,10.1-118.2,22.46-23.43,7.54-46.49,16.49-63.13,35.55-13.94,16-38.21,16.83-53.13-1.37a193.47,193.47,0,0,1-18.19-25.6c-25.77-44.72-46.39-91.9-64.84-140-10.81-28.15-20-56.91-30-85.61a3.68,3.68,0,0,0-1.28-.31c-3.21.13-6.41.27-9.6.52a216.46,216.46,0,0,1-93.59-12.81c-26.42-9.81-52.07-21-65.15-48.74C23.19,452.86,41,431.84,81.15,425.75c19.29-2.92,37.36-1,55.09,7.78,13.45,6.65,27.8,11.48,40.89,16.77,0-14.85-.43-29.07.08-43.26,1.67-46.86,13.09-90.32,45.76-125.94,17.27-18.82,38.54-31.55,62.35-40.43A979.91,979.91,0,0,1,495.6,188.14c58.48-8,117.32-15,176.23-17.92,51.41-2.52,94.74,18.2,122.26,63.84,30.73,51,54.35,105.31,72.4,162.05.52,1.61,1.15,3.19,2.3,6.37,5.61-11.19,10.36-21.2,15.59-31,10.09-18.82,28.43-26.39,45.15-18.68,11.4,5.26,17.42,15.07,20.85,26.61,1.73,5.84,2.59,11.93,4.09,17.84,2.54,10,4.06,19.89,12,28.26,8.45,8.93,5.56,21.4,4.81,32.7-.33,4.92-.91,9.84-1.38,14.76C969.62,474.22,969.37,475.43,969.11,476.64ZM327.6,779.35c8.89,11.59,10.84,11.41,21.58,1.81a172.45,172.45,0,0,1,25-19c28.27-17.22,59.76-26,91.93-31.66C499.84,724.62,533.86,720,567.92,716c43.88-5.14,87.85-9.79,131.89-13.35q51.77-4.17,103.76-5c35.68-.56,61.63-16.31,80.36-45.77a343.5,343.5,0,0,0,45.22-108.34c7.23-31.66,11.23-64.06,16.54-96.15,1.18-7.17-1.89-10.36-9.39-9.17-10,1.59-20.14,2.82-30.21,4.31-17.23,2.54-34.45,5.16-51.68,7.74-16.06-68.23-43-132.06-76.66-193.39-24.61-44.82-63-64-112.12-60.31-56.27,4.22-112.51,10.08-168.39,17.88A1003.92,1003.92,0,0,0,300.9,262.76c-37,13.1-65.47,35.11-81.6,71.45-16.6,37.4-18.38,76.6-13.25,116.52,1.46,11.42,3,22.82,4.7,35.2-3.82-.76-6.43-1-8.82-1.81-25.53-8.84-51.65-16.37-76.34-27.16-19.3-8.44-37.33-7.62-55.85-.84-19.73,7.23-22,23-5.88,36.46A36.55,36.55,0,0,0,68,495.82c33.43,20.38,69.66,30.48,108.86,28.58,13.81-.67,27.55-2.83,41.8-4.36,16,63.07,38.86,124,67.17,182.86C298.4,729,313.59,753.91,327.6,779.35ZM934.14,423.29c-3.32-13.69-6.12-26.64-9.8-39.32-.88-3-4.61-6.92-7.29-7.15s-6.84,3-8.4,5.85c-5.89,10.63-11.29,21.57-16.21,32.68-1.59,3.58-1.16,8.07-1.75,13Z"/><path class="cls-2" d="M28.62,488.69c13.08,27.78,38.73,38.93,65.15,48.74a216.46,216.46,0,0,0,93.59,12.81c3.19-.25,6.39-.39,9.6-.52a3.68,3.68,0,0,1,1.28.31c10,28.7,19.23,57.46,30,85.61,18.45,48.09,39.07,95.27,64.84,140a193.47,193.47,0,0,0,18.19,25.6c14.92,18.2,39.19,17.33,53.13,1.37,16.64-19.06,39.7-28,63.13-35.55,38.46-12.36,78.3-17.75,118.2-22.46,40.2-4.74,80.42-9.48,120.75-12.79,40-3.29,80.23-4.66,120.34-7.14,14.79-.91,29.79-1.29,44.25-4.15,33.46-6.61,57.31-27.26,75.09-55.47,27.83-44.16,44.4-92.68,54.92-143.49a40.36,40.36,0,0,1,1.66-4.82c-.59,7.21-.42,14.58-1.88,21.61-8.16,39.11-19.94,77.09-38.21,112.74-12.77,24.93-27.3,48.63-50.44,65.86-18.36,13.69-39.22,20-61.5,21.85-17.94,1.45-36,1-54,2-33.85,2-67.71,4.13-101.5,6.92q-43.69,3.63-87.25,8.94c-27.26,3.35-54.56,6.94-81.53,12.07-23.85,4.54-47.51,10.52-70.81,17.4-19.08,5.65-36.65,15.3-50.4,30.06-21.11,22.66-43.15,14.7-58.26-4.87-22.82-29.55-37.71-63.52-52.45-97.34-15.08-34.6-28.21-70.06-41.81-105.29a330.21,330.21,0,0,1-10.09-32.4C200.39,568,198.3,563.71,187,565.1c-22.48,2.77-45.56,1.43-67.36-5.19a394.25,394.25,0,0,1-59-23.11C45.46,529.32,32.77,517.57,28.07,500,27.14,496.54,28.38,492.48,28.62,488.69Z"/><path class="cls-3" d="M327.6,779.35c-14-25.44-29.2-50.32-41.78-76.45C257.51,644.08,234.64,583.11,218.65,520c-14.25,1.53-28,3.69-41.8,4.36-39.2,1.9-75.43-8.2-108.86-28.58a36.55,36.55,0,0,1-4.13-3.24C47.71,479.16,50,463.35,69.74,456.12c18.52-6.78,36.55-7.6,55.85.84,24.69,10.79,50.81,18.32,76.34,27.16,2.39.83,5,1.05,8.82,1.81-1.66-12.38-3.24-23.78-4.7-35.2-5.13-39.92-3.35-79.12,13.25-116.52,16.13-36.34,44.57-58.35,81.6-71.45a1003.92,1003.92,0,0,1,196.34-48.32c55.88-7.8,112.12-13.66,168.39-17.88,49.13-3.68,87.51,15.49,112.12,60.31,33.67,61.33,60.6,125.16,76.66,193.39a13.61,13.61,0,0,1-3,1.6c-49.69,13-99.69,24.87-149,39.14a579.34,579.34,0,0,0-129.74,55.56c-16.59,9.62-32.61,20.23-49,30.26-6.19,3.79-12.15,5.68-17.15-2.33-3.84-6.14-8.61-11.7-12.74-17.67-5.62-8.12-11.35-9.36-18.47-2.85-10,9.18-17.56,20.21-20.92,33.56-.72,2.83.32,6.11.55,9.18l2.56.42c3.21-4.7,6.26-9.51,9.67-14.07,4.92-6.57,7.56-6.4,12.63.05,6.05,7.71,12.26,15.28,18.49,23,131.3-84,277.23-120.77,428.94-142.85.24,3.83.67,5.57.41,7.2-2.19,14-4.16,28.09-6.84,42-8.32,43.18-19,85.57-40.63,124.49-9.51,17.07-22.44,29.35-42.06,31.88-20.67,2.66-41.54,3.8-62.35,5.3-42,3-84,5.2-125.88,9-33.75,3.06-67.42,7.33-100.94,12.26-47.43,7-94.34,16.64-139.4,33.49-29,10.83-57.36,22.91-77.45,48.21C331.19,778.32,329.13,778.63,327.6,779.35Zm253.86-359,2.44,1.78L599,433.94l5.31,2.26v-.11c1.93,1.17,3.71,3,5.79,3.43,17.71,3.86,37.89-4.59,48.46-19,18.69-25.56,15.58-67.77-12.35-92.16-19.26-16.8-52.95-14.19-68.32,6.33-14.85,19.84-16.74,41.51-9.48,64.17,2.1,6.55,7.67,12,11.65,17.93l-.25.14,1.83,3.57Zm140-19.11-.05-.09,3.63,3.52,10.53,9.2,1.54,1.4c8.63,5.48,20,4.4,28-2.66,12.46-10.92,15.55-26.58,8.71-45.56-4.39-12.2-13.14-19.95-26-21.65-12.39-1.65-22.53,3.5-28.39,14.55-6.54,12.32-8.19,25.16.4,37.6l-.17.05Zm-315-62.72c-2.75-9.64-4.52-19.7-8.47-28.81-6-13.83-17.07-21.49-32.59-22.29-18.07-.93-32.23,5.54-42.13,20.95-11.63,18.08-6.08,49.08,6.17,64,15.87,19.32,39,22.57,58.56,7.12C400.74,369.47,404.41,354.73,406.48,338.55Zm99.68,182h.37c0,8.72-.62,17.5.2,26.14a92.42,92.42,0,0,0,4.85,21c1.61,4.73,5.1,6.48,10.24,2.88,15.46-10.83,31.11-21.39,46.82-31.86,5-3.33,4.81-6.3,1-10.48-5.08-5.56-9.56-11.67-14.55-17.32-8.64-9.77-17-19.9-26.5-28.73-3.36-3.12-11.18-5.39-14.52-3.57-4,2.18-6.91,9-7.58,14.1C505.3,501.83,506.16,511.24,506.16,520.54ZM301.4,353.85a41.61,41.61,0,0,0,0-5.24c-1.42-11.29-6.09-21.25-16.53-26.1-9-4.19-18.87-3.14-27.31,3-12.29,9-14.09,26.12-4.61,41.65,6.83,11.19,18.72,16.88,29.2,14C295.19,377.54,301.44,368.7,301.4,353.85Zm38.51,72.89c0-15.74-8.94-25.44-23.47-25.47-16.58,0-27.18,9.63-27.3,24.92-.11,15.81,10.33,27.7,24.71,26.87C332.19,452,341.08,440.74,339.91,426.74ZM141.38,493.68c-2.41,13.48,3.9,21.46,18.64,21,10.9-.33,21.83-2.68,32.57-5,13.74-3,27.29-6.78,40.92-10.24-6-1.39-11.66-.51-17.3-.24-33.79,1.63-63.93-9.5-92.64-26.16a107.83,107.83,0,0,0-23.09-9.9c-8.82-2.62-19.93,3.07-24.17,11.82,14-9.55,26.45-6,38.63,2C123.45,482.52,132.11,487.84,141.38,493.68Zm634.26-205c.61-10-2-18.83-9.7-25.74-5.62-5.06-13.44-4.25-19.52.17-10.88,7.9-5,36.15,4.47,42.36,4.55,3,8.82,6.93,15,3.55s9.92-7.89,9.8-15.13C775.62,292.15,775.65,290.41,775.64,288.68Zm-540.75,131c-1.22,13.59,10.46,23.23,18.69,23.29,9.26.07,18.06-9.52,18-19,0-12.36-8.78-24-18.25-24.15C243,399.56,234.89,408.25,234.89,419.63ZM820.06,566.14c3.3-6.88,5.08-12.78-1.33-14.84-4.88-1.57-12-.8-16.29,1.85-3.33,2-5.87,8.93-5.21,13.1,1,6.63,4.32,13.28,8.12,18.94,1.82,2.73,7.28,5,10.58,4.43,18.58-3.16,27-17.73,21.31-36.58-.85,4.59-1.42,8.57-2.35,12.47-2,8.43-9.67,15.08-17.55,16-8.5,1-9-6.3-11.07-11-1.56-3.49-2.51-9.64-.59-11.7,2.63-2.84,8.22-2.93,13.07-4.36C819.28,559.18,819.56,561.63,820.06,566.14ZM369.62,414.86c-.09,8.19,3.95,12.51,11.85,12.65,6.29.11,12.66-5.77,12.64-11.67,0-8.35-4.56-12.83-13-12.82C373.51,403,369.71,406.92,369.62,414.86ZM794.8,307.33c-1.39-1.15-3.85-4.71-6.95-5.42-4.93-1.12-11.44,8-10.12,14.78.56,2.82,4,6.49,6.79,7.15C789.39,325,795.09,316.66,794.8,307.33Z"/><path class="cls-4" d="M327.6,779.35c1.53-.72,3.59-1,4.53-2.22,20.09-25.3,48.48-37.38,77.45-48.21,45.06-16.85,92-26.51,139.4-33.49,33.52-4.93,67.19-9.2,100.94-12.26,41.89-3.8,83.92-6,125.88-9,20.81-1.5,41.68-2.64,62.35-5.3,19.62-2.53,32.55-14.81,42.06-31.88,21.67-38.92,32.31-81.31,40.63-124.49,2.68-13.93,4.65-28,6.84-42,.26-1.63-.17-3.37-.41-7.2-151.71,22.08-297.64,58.87-428.94,142.85-6.23-7.74-12.44-15.31-18.49-23-5.07-6.45-7.71-6.62-12.63-.05-3.41,4.56-6.46,9.37-9.67,14.07l-2.56-.42c-.23-3.07-1.27-6.35-.55-9.18,3.36-13.35,10.88-24.38,20.92-33.56,7.12-6.51,12.85-5.27,18.47,2.85,4.13,6,8.9,11.53,12.74,17.67,5,8,11,6.12,17.15,2.33,16.37-10,32.39-20.64,49-30.26A579.34,579.34,0,0,1,702.43,491c49.32-14.27,99.32-26.16,149-39.14a13.61,13.61,0,0,0,3-1.6c17.23-2.58,34.45-5.2,51.68-7.74,10.07-1.49,20.17-2.72,30.21-4.31,7.5-1.19,10.57,2,9.39,9.17-5.31,32.09-9.31,64.49-16.54,96.15a343.5,343.5,0,0,1-45.22,108.34c-18.73,29.46-44.68,45.21-80.36,45.77q-51.92.81-103.76,5c-44,3.56-88,8.21-131.89,13.35-34.06,4-68.08,8.63-101.85,14.54-32.17,5.64-63.66,14.44-91.93,31.66a172.45,172.45,0,0,0-25,19C338.44,790.76,336.49,790.94,327.6,779.35Z"/><path class="cls-5" d="M934.14,423.29l-43.45,5.09c.59-5,.16-9.45,1.75-13,4.92-11.11,10.32-22.05,16.21-32.68,1.56-2.82,5.71-6.07,8.4-5.85s6.41,4.15,7.29,7.15C928,396.65,930.82,409.6,934.14,423.29Z"/><path class="cls-6" d="M406.48,338.55c-2.07,16.18-5.74,30.92-18.46,41-19.56,15.45-42.69,12.2-58.56-7.12-12.25-14.91-17.8-45.91-6.17-64,9.9-15.41,24.06-21.88,42.13-20.95,15.52.8,26.61,8.46,32.59,22.29C402,318.85,403.73,328.91,406.48,338.55Z"/><path class="cls-7" d="M580,416.74c-4-5.95-9.55-11.38-11.65-17.93-7.26-22.66-5.37-44.33,9.48-64.17,15.37-20.52,49.06-23.13,68.32-6.33,27.93,24.39,31,66.6,12.35,92.16-10.57,14.46-30.75,22.91-48.46,19-2.08-.45-3.86-2.26-5.79-3.43,27.39,3.43,44.1-4.91,52.46-26.19a43.85,43.85,0,0,0-20.07-54.59c-19.8-10.47-42.94-4.83-55.28,14C571.3,384.66,572.82,400.7,580,416.74Z"/><path class="cls-8" d="M580,416.74c-7.19-16-8.71-32.08,1.36-47.43,12.34-18.83,35.48-24.47,55.28-14a43.85,43.85,0,0,1,20.07,54.59c-8.36,21.28-25.07,29.62-52.46,26.19v.11L599,433.94,583.9,422.16l-2.44-1.78.13.07-1.83-3.57Zm39.06-33.44c-11.43-2.62-21.28,1.36-26.79,10.81a25.88,25.88,0,0,0,3,30,24.26,24.26,0,0,0,28.58,6c10.45-4.93,15-14.94,13-28.47C625.47,403.08,622.85,400.37,619.07,383.3Z"/><path class="cls-9" d="M506.16,520.54c0-9.3-.86-18.71.33-27.85.67-5.14,3.58-11.92,7.58-14.1,3.34-1.82,11.16.45,14.52,3.57,9.53,8.83,17.86,19,26.5,28.73,5,5.65,9.47,11.76,14.55,17.32,3.81,4.18,4,7.15-1,10.48-15.71,10.47-31.36,21-46.82,31.86-5.14,3.6-8.63,1.85-10.24-2.88a92.42,92.42,0,0,1-4.85-21c-.82-8.64-.2-17.42-.2-26.14Z"/><path class="cls-6" d="M301.41,353.85c0,14.85-6.22,23.69-19.29,27.31-10.48,2.89-22.37-2.8-29.2-14-9.48-15.53-7.68-32.7,4.61-41.65,8.44-6.15,18.31-7.2,27.31-3,10.44,4.85,15.11,14.81,16.53,26.1A43.58,43.58,0,0,1,301.41,353.85Z"/><path class="cls-10" d="M339.91,426.74c1.17,14-7.72,25.27-26.06,26.32-14.38.83-24.82-11.06-24.71-26.87.12-15.29,10.72-25,27.3-24.92C331,401.3,339.9,411,339.91,426.74Z"/><path class="cls-11" d="M141.38,493.68c-9.27-5.84-17.93-11.16-26.44-16.72-12.18-7.95-24.61-11.54-38.63-2,4.24-8.75,15.35-14.44,24.17-11.82a107.83,107.83,0,0,1,23.09,9.9c28.71,16.66,58.85,27.79,92.64,26.16,5.64-.27,11.26-1.15,17.3.24-13.63,3.46-27.18,7.28-40.92,10.24-10.74,2.31-21.67,4.66-32.57,5C145.28,515.14,139,507.16,141.38,493.68Z"/><path class="cls-12" d="M775.64,288.68c0,1.73,0,3.47,0,5.21.12,7.24-3.79,11.81-9.8,15.13s-10.41-.56-15-3.55c-9.44-6.21-15.35-34.46-4.47-42.36,6.08-4.42,13.9-5.23,19.52-.17C773.62,269.85,776.25,278.65,775.64,288.68Z"/><path class="cls-13" d="M719.91,397.58c-8.59-12.44-6.94-25.28-.4-37.6,5.86-11.05,16-16.2,28.39-14.55,12.81,1.7,21.56,9.45,26,21.65,6.84,19,3.75,34.64-8.71,45.56-8.07,7.06-19.39,8.14-28,2.66,2.9.08,5.8.25,8.7.23,14.15-.08,24.65-10,25.84-24.24,1.08-12.92-8.45-25.92-20.82-28.4-13.43-2.69-26.29,4.33-30.05,17.5C719.26,385.76,720.13,391.83,719.91,397.58Z"/><path class="cls-14" d="M719.91,397.58c.22-5.75-.65-11.82.88-17.19,3.76-13.17,16.62-20.19,30.05-17.5,12.37,2.48,21.9,15.48,20.82,28.4-1.19,14.28-11.69,24.16-25.84,24.24-2.9,0-5.8-.15-8.7-.23l-1.54-1.4c18.43-1.75,24.62-7.65,23.46-22.38-10.1,3.74-14-.31-13.93-14.53-15.57-2.55-24.22,7.56-20.87,24.38l-2.82-.19.05.09c-.58-1.22-1.15-2.43-1.73-3.64Z"/><path class="cls-15" d="M234.89,419.63c0-11.38,8.09-20.07,18.49-19.86,9.47.18,18.24,11.79,18.25,24.15,0,9.48-8.79,19.07-18,19C245.35,442.86,233.67,433.22,234.89,419.63Z"/><path class="cls-16" d="M724.24,401.37c-3.35-16.82,5.3-26.93,20.87-24.38-.05,14.22,3.83,18.27,13.93,14.53,1.16,14.73-5,20.63-23.46,22.38l-10.53-9.2Z"/><path class="cls-17" d="M820.06,566.14c-.5-4.51-.78-7-1.31-11.69-4.85,1.43-10.44,1.52-13.07,4.36-1.92,2.06-1,8.21.59,11.7,2.12,4.74,2.57,12.08,11.07,11,7.88-1,15.53-7.61,17.55-16,.93-3.9,1.5-7.88,2.35-12.47,5.69,18.85-2.73,33.42-21.31,36.58-3.3.57-8.76-1.7-10.58-4.43-3.8-5.66-7.07-12.31-8.12-18.94-.66-4.17,1.88-11.06,5.21-13.1,4.32-2.65,11.41-3.42,16.29-1.85C825.14,553.36,823.36,559.26,820.06,566.14Z"/><path class="cls-18" d="M369.62,414.86c.09-7.94,3.89-11.84,11.52-11.84,8.41,0,12.94,4.47,13,12.82,0,5.9-6.35,11.78-12.64,11.67C373.57,427.37,369.53,423.05,369.62,414.86Z"/><path class="cls-12" d="M794.8,307.33c.29,9.33-5.41,17.65-10.28,16.51-2.76-.66-6.23-4.33-6.79-7.15-1.32-6.74,5.19-15.9,10.12-14.78C791,302.62,793.41,306.18,794.8,307.33Z"/><path class="cls-13" d="M724.24,401.37l.81,3.33-3.63-3.52Z"/><path class="cls-7" d="M599,433.94l5.31,2.26Z"/><path class="cls-19" d="M619.07,383.3c3.78,17.07,6.4,19.78,17.76,18.34,2,13.53-2.57,23.54-13,28.47a24.26,24.26,0,0,1-28.58-6,25.88,25.88,0,0,1-3-30C597.79,384.66,607.64,380.68,619.07,383.3Z"/></svg>